<svg xmlns="http://www.w3.org/2000/svg" viewBox="-2.00 -102.72 220.59 108.41" role="img" aria-hidden="true">
  <path fill="currentColor" d="M12.54380859375 -100.71940429687501H13.589125976562501V-100.47344726562501Q13.589125976562501 -99.1821728515625 12.961935546875 -98.99770507812501H12.54380859375Q12.125681640625 -98.99770507812501 12.125681640625 -99.48961914062501V-100.22749023437501Q12.177947509765627 -100.71940429687501 12.54380859375 -100.71940429687501ZM16.725078125000003 -96.784091796875H17.770395507812502Q18.3975859375 -96.538134765625 18.3975859375 -95.308349609375V-95.062392578125Q18.083990722656253 -94.07856445312501 16.9341416015625 -94.07856445312501H16.5160146484375Q16.20241943359375 -94.07856445312501 15.88882421875 -94.816435546875Q16.150153564453127 -96.66111328125001 16.725078125000003 -96.784091796875ZM27.3873154296875 -90.881123046875H28.014505859375003Q28.432632812500003 -90.81963378906251 28.432632812500003 -90.389208984375Q28.432632812500003 -90.02027343750001 27.8054423828125 -89.651337890625H27.3873154296875Q27.073720214843753 -89.651337890625 26.760125000000002 -90.389208984375ZM27.8054423828125 -81.28879882812501Q30.627799316406254 -80.79688476562501 31.986711914062504 -80.79688476562501Q32.195775390625 -80.79688476562501 33.659219726562505 -81.04284179687501L34.9136005859375 -80.79688476562501Q35.07039819335938 -80.79688476562501 36.167981445312506 -81.04284179687501Q37.735957519531254 -80.55092773437501 38.049552734375006 -80.55092773437501Q38.99033837890625 -80.55092773437501 42.8580126953125 -80.79688476562501Q52.8930595703125 -80.24348144531251 52.8930595703125 -79.321142578125Q53.311186523437506 -76.861572265625 54.774630859375 -76.861572265625V-76.123701171875L53.520250000000004 -75.13987304687501V-73.172216796875Q53.520250000000004 -72.31136718750001 54.356503906250005 -71.204560546875V-69.482861328125Q52.683996093750004 -67.9456298828125 52.683996093750004 -66.285419921875L53.10212304687501 -66.039462890625H53.938376953125L54.5655673828125 -66.531376953125Q59.11269799804688 -66.531376953125 62.92810644531251 -67.515205078125H66.6912490234375Q68.25922509765626 -67.515205078125 70.245328125 -65.547548828125L69.827201171875 -58.660751953125Q70.03626464843751 -57.3694775390625 70.03626464843751 -57.185009765625004Q69.61813769531251 -54.725439453125006 69.61813769531251 -52.265869140625V-50.298212890625Q69.61813769531251 -50.113745117187506 70.03626464843751 -48.330556640625005V-47.838642578125004Q70.03626464843751 -47.22375 69.40907421875 -44.887158203125004V-44.149287109375Q70.4543916015625 -41.32078125 70.4543916015625 -40.951845703125Q69.2000107421875 -40.951845703125 69.2000107421875 -34.802919921875Q69.40907421875 -30.621650390625003 69.827201171875 -30.621650390625003V-30.375693359375003Q69.2000107421875 -29.4533544921875 69.2000107421875 -28.653994140625002V-26.440380859375Q69.2000107421875 -25.456552734375002 70.4543916015625 -23.980810546875002V-23.488896484375Q70.4543916015625 -23.242939453125 70.245328125 -23.242939453125L70.4543916015625 -22.751025390625003V-22.013154296875Q69.2000107421875 -20.660390625 69.2000107421875 -19.799541015625V-19.307626953125002L69.40907421875 -17.585927734375L68.99094726562501 -17.339970703125H67.73656640625Q65.48913403320313 -17.339970703125 64.60061425781251 -15.618271484375Q62.300916015625006 -15.864228515625001 61.464662109375006 -16.602099609375Q57.70151953125001 -16.602099609375 57.70151953125001 -14.880400390625H57.4924560546875Q56.70846801757813 -15.74125 55.401821289062504 -15.864228515625001Q54.356503906250005 -15.49529296875 54.356503906250005 -14.142529296875L54.5655673828125 -12.912744140625001Q54.356503906250005 -11.191044921875001 54.356503906250005 -10.945087890625Q54.356503906250005 -10.6376416015625 54.5655673828125 -8.485517578125Q54.042908691406254 -2.336591796875 53.311186523437506 -2.336591796875Q52.474932617187505 -1.844677734375 51.8477421875 -1.844677734375Q50.802424804687504 -1.844677734375 48.71179003906251 -2.090634765625Q48.03233374023438 -2.090634765625 44.9486474609375 -1.5987207031250001Q43.58973486328125 -1.844677734375 42.230822265625 -1.844677734375H41.603631835937506Q40.1401875 -1.844677734375 39.30393359375 -1.352763671875Q37.47462817382813 -1.5987207031250001 37.0042353515625 -1.5987207031250001Q33.76375146484375 -1.5987207031250001 29.059823242187502 -0.860849609375V-1.1068066406250001Q22.160728515625003 -0.4304248046875 22.160728515625003 0.6148925781250001Q21.847133300781252 1.5987207031250001 21.5335380859375 1.5987207031250001H21.1154111328125Q20.6972841796875 1.5987207031250001 20.6972841796875 1.1068066406250001V-0.122978515625Q17.143205078125 -0.122978515625 17.143205078125 -9.961259765625Q16.411482910156252 -15.864228515625001 15.6797607421875 -15.864228515625001H15.2616337890625Q14.738975097656251 -15.864228515625001 12.54380859375 -14.880400390625H12.3347451171875L11.289427734375002 -16.110185546875H8.780666015625Q7.317221679687501 -16.110185546875 7.317221679687501 -14.634443359375H6.899094726562501Q6.899094726562501 -15.49529296875 5.0175234375 -16.356142578125002Q3.03142041015625 -17.770395507812502 2.50876171875 -20.291455078125L2.7178251953125003 -22.751025390625003V-26.932294921875002Q2.7178251953125003 -27.116762695312502 1.254380859375 -28.162080078125V-28.899951171875003L2.926888671875 -30.375693359375003V-32.835263671875005Q2.926888671875 -34.065048828125 2.50876171875 -34.065048828125Q2.351964111328125 -34.065048828125 0.8362539062500001 -33.819091796875V-34.065048828125Q0.8362539062500001 -36.278662109375 2.926888671875 -38.000361328125V-43.411416015625L2.7178251953125003 -45.133115234375005H2.926888671875Q2.926888671875 -45.379072265625005 2.7178251953125003 -45.379072265625005Q2.926888671875 -47.838642578125004 2.926888671875 -49.068427734375V-51.527998046875005L1.254380859375 -53.003740234375V-53.741611328125Q2.7178251953125003 -55.34033203125 2.7178251953125003 -56.201181640625V-58.906708984375Q2.7178251953125003 -59.398623046875 2.2996982421875 -59.398623046875H1.4634443359375L0.6271904296875 -58.660751953125L0.41812695312500003 -59.152666015625Q0.8885197753906251 -60.5669189453125 2.7178251953125003 -62.104150390625Q2.7178251953125003 -67.269248046875 6.4809677734375 -67.269248046875Q6.899094726562501 -67.515205078125 7.108158203125001 -67.515205078125Q8.46707080078125 -66.285419921875 11.498491210937502 -66.285419921875Q11.812086425781251 -67.269248046875 12.125681640625 -67.269248046875H12.3347451171875Q13.223264892578126 -65.793505859375 15.6797607421875 -65.793505859375Q18.606649414062503 -65.793505859375 18.606649414062503 -69.728818359375L17.56133203125 -68.74499023437501H16.725078125000003Q16.463748779296875 -68.74499023437501 15.6797607421875 -69.974775390625V-71.450517578125Q15.732026611328127 -71.942431640625 16.0978876953125 -71.942431640625H16.725078125000003Q16.9341416015625 -71.942431640625 16.9341416015625 -71.696474609375Q19.024776367187503 -71.696474609375 19.024776367187503 -74.15604492187501V-75.877744140625Q19.024776367187503 -76.5541259765625 15.88882421875 -77.353486328125V-77.599443359375L16.306951171875003 -77.845400390625H16.5160146484375Q16.725078125000003 -77.845400390625 16.725078125000003 -77.599443359375Q17.979458984375 -78.583271484375 18.606649414062503 -78.583271484375Q18.658915283203125 -78.091357421875 19.024776367187503 -78.091357421875Q20.435954833984376 -80.7353955078125 21.324474609375002 -81.04284179687501H22.160728515625003Q24.878553710937503 -81.04284179687501 27.8054423828125 -81.28879882812501ZM21.324474609375002 -62.842021484375Q20.59275244140625 -61.919682617187505 20.488220703125002 -60.382451171875005L20.906347656250002 -60.136494140625004H21.1154111328125L22.3697919921875 -61.36627929687501H22.996982421875003Q23.31057763671875 -61.36627929687501 23.624172851562502 -60.628408203125005V-60.382451171875005Q23.2060458984375 -59.214155273437505 20.488220703125002 -57.922880859375006Q20.488220703125002 -57.1235205078125 20.2791572265625 -56.693095703125L20.488220703125002 -55.709267578125Q20.07009375 -52.88076171875 20.07009375 -51.527998046875005Q20.07009375 -51.159062500000005 20.906347656250002 -50.544169921875L21.324474609375002 -50.790126953125004H22.3697919921875Q24.408160888671876 -50.298212890625 24.669490234375 -50.298212890625H27.8054423828125Q29.321152587890627 -50.298212890625 32.4048388671875 -49.806298828125Q34.495473632812505 -49.806298828125 34.495473632812505 -52.019912109375Q34.704537109375 -55.83224609375 34.704537109375 -59.890537109375V-60.136494140625004Q34.704537109375 -62.350107421875 33.2410927734375 -62.350107421875L31.986711914062504 -62.104150390625Q31.150458007812503 -62.596064453125 29.687013671875004 -62.596064453125H28.6416962890625Q26.9691884765625 -62.596064453125 24.25136328125 -62.350107421875Q23.885502197265627 -62.596064453125 23.415109375 -62.596064453125Q23.049248291015626 -62.350107421875 22.578855468750003 -62.350107421875Q21.899399169921878 -62.842021484375 21.324474609375002 -62.842021484375ZM23.624172851562502 -54.971396484375006Q24.460426757812503 -53.9260791015625 24.460426757812503 -53.003740234375L24.042299804687502 -52.757783203125H22.7879189453125Q22.47432373046875 -52.757783203125 22.160728515625003 -53.495654296875V-54.233525390625005Q22.160728515625003 -54.7869287109375 23.624172851562502 -54.971396484375006ZM31.568584960937503 -53.003740234375Q31.88218017578125 -53.003740234375 32.822965820312504 -51.527998046875005L32.4048388671875 -51.282041015625005H31.7776484375Q31.464053222656254 -51.282041015625005 31.150458007812503 -52.019912109375V-52.511826171875Q31.202723876953126 -53.003740234375 31.568584960937503 -53.003740234375ZM0.41812695312500003 -47.838642578125004H0.6271904296875Q2.50876171875 -46.48587890625 2.50876171875 -46.116943359375Q2.50876171875 -45.7480078125 1.6725078125000001 -45.133115234375005Q1.3589125976562502 -45.133115234375005 0.41812695312500003 -47.100771484375ZM0.41812695312500003 -42.181630859375005H0.8362539062500001V-41.935673828125005Q0.8362539062500001 -41.566738281250004 0.20906347656250002 -41.197802734375L0.0 -41.689716796875004Q0.052265869140625004 -42.181630859375005 0.41812695312500003 -42.181630859375005ZM38.6767431640625 -33.819091796875 38.258616210937504 -33.081220703125V-29.391865234375L39.5129970703125 -28.408037109375V-28.162080078125Q39.5129970703125 -27.424208984375003 38.4676796875 -25.948466796875003Q38.258616210937504 -25.518041992187502 38.258616210937504 -24.718681640625V-23.242939453125Q38.258616210937504 -21.275283203125 41.394568359375 -21.275283203125H41.603631835937506V-21.521240234375Q40.976441406250004 -22.443579101562502 40.976441406250004 -23.734853515625Q41.44683422851563 -24.964638671875 43.067076171875 -24.964638671875Q43.694266601562504 -24.103789062500002 43.694266601562504 -21.275283203125Q43.485203125000005 -21.275283203125 43.485203125000005 -21.029326171875002Q46.88248461914063 -20.537412109375 49.33898046875 -19.799541015625L49.757107421875006 -20.537412109375V-22.996982421875Q50.3842978515625 -27.7316552734375 50.3842978515625 -30.867607421875Q47.71873852539063 -32.0359033203125 38.6767431640625 -33.819091796875ZM47.248345703125004 -30.129736328125002Q47.66647265625 -30.068247070312502 47.66647265625 -29.637822265625V-29.391865234375Q47.66647265625 -29.022929687500003 47.039282226562506 -28.653994140625002L46.83021875 -29.145908203125V-29.637822265625Q46.88248461914063 -30.129736328125002 47.248345703125004 -30.129736328125002ZM48.5027265625 -24.472724609375H48.71179003906251Q49.54804394531251 -23.980810546875002 49.54804394531251 -23.242939453125Q49.54804394531251 -21.9516650390625 48.5027265625 -21.275283203125H48.2936630859375Q47.875536132812506 -21.275283203125 47.875536132812506 -21.767197265625Q48.03233374023438 -24.472724609375 48.5027265625 -24.472724609375ZM0.41812695312500003 -22.013154296875H0.8362539062500001V-21.767197265625H0.41812695312500003ZM1.8815712890625003 -19.061669921875H2.2996982421875Q2.7178251953125003 -19.0001806640625 2.7178251953125003 -18.569755859375V-18.323798828125Q2.50876171875 -17.585927734375 1.4634443359375 -17.585927734375L1.254380859375 -18.077841796875003V-18.323798828125Q1.254380859375 -18.692734375 1.8815712890625003 -19.061669921875ZM57.283392578125 -6.271904296875H57.4924560546875Q57.80605126953125 -6.271904296875 58.119646484375004 -5.534033203125V-5.288076171875001Q58.119646484375004 -4.796162109375 57.70151953125001 -4.796162109375H57.4924560546875Q57.17886083984376 -4.796162109375 56.865265625000006 -5.534033203125V-5.779990234375Q56.91753149414063 -6.271904296875 57.283392578125 -6.271904296875ZM20.07009375 -4.796162109375Q20.07009375 -4.304248046875 19.861030273437503 -4.304248046875Q19.861030273437503 -2.8285058593750003 21.324474609375002 -2.8285058593750003H21.742601562500003Q22.160728515625003 -2.8285058593750003 22.160728515625003 -3.320419921875Q21.324474609375002 -4.796162109375 20.07009375 -4.796162109375ZM47.66647265625 -1.1068066406250001Q49.966170898437504 0.0614892578125 49.966170898437504 1.5987207031250001Q48.764055908203126 3.074462890625 48.5027265625 3.074462890625H48.2936630859375Q48.084599609375005 3.074462890625 47.039282226562506 -0.860849609375Q47.4574091796875 -1.1068066406250001 47.66647265625 -1.1068066406250001ZM43.485203125000005 -0.368935546875Q43.903330078125 -0.368935546875 43.903330078125 0.368935546875Q43.74653247070313 2.8285058593750003 43.067076171875 2.8285058593750003H42.0217587890625Q41.394568359375 2.582548828125 41.394568359375 1.352763671875V1.1068066406250001Q42.230822265625 -0.368935546875 43.485203125000005 -0.368935546875ZM26.760125000000002 -0.122978515625H28.2235693359375Q28.537164550781252 -0.122978515625 28.850759765625003 0.6148925781250001V1.5987207031250001Q28.328101074218754 2.8285058593750003 27.178251953125002 2.8285058593750003Q26.341998046875002 2.5210595703125 26.341998046875002 0.6148925781250001V0.368935546875Q26.39426391601563 -0.122978515625 26.760125000000002 -0.122978515625Z M85.0888349609375 -100.71940429687501H86.13415234375V-100.47344726562501Q86.13415234375 -99.1821728515625 85.5069619140625 -98.99770507812501H85.0888349609375Q84.67070800781251 -98.99770507812501 84.67070800781251 -99.48961914062501V-100.22749023437501Q84.72297387695313 -100.71940429687501 85.0888349609375 -100.71940429687501ZM89.2701044921875 -96.784091796875H90.315421875Q90.9426123046875 -96.538134765625 90.9426123046875 -95.308349609375V-95.062392578125Q90.62901708984376 -94.07856445312501 89.47916796875 -94.07856445312501H89.06104101562501Q88.74744580078125 -94.07856445312501 88.4338505859375 -94.816435546875Q88.69517993164064 -96.66111328125001 89.2701044921875 -96.784091796875ZM99.93234179687501 -90.881123046875H100.55953222656251Q100.9776591796875 -90.81963378906251 100.9776591796875 -90.389208984375Q100.9776591796875 -90.02027343750001 100.35046875 -89.651337890625H99.93234179687501Q99.61874658203126 -89.651337890625 99.3051513671875 -90.389208984375ZM100.35046875 -81.28879882812501Q103.17282568359376 -80.79688476562501 104.53173828125 -80.79688476562501Q104.7408017578125 -80.79688476562501 106.20424609375002 -81.04284179687501L107.458626953125 -80.79688476562501Q107.61542456054688 -80.79688476562501 108.71300781250001 -81.04284179687501Q110.28098388671876 -80.55092773437501 110.59457910156252 -80.55092773437501Q111.53536474609376 -80.55092773437501 115.4030390625 -80.79688476562501Q125.4380859375 -80.24348144531251 125.4380859375 -79.321142578125Q125.85621289062502 -76.861572265625 127.3196572265625 -76.861572265625V-76.123701171875L126.06527636718751 -75.13987304687501V-73.172216796875Q126.06527636718751 -72.31136718750001 126.90153027343752 -71.204560546875V-69.482861328125Q125.2290224609375 -67.9456298828125 125.2290224609375 -66.285419921875L125.64714941406251 -66.039462890625H126.4834033203125L127.11059375 -66.531376953125Q131.6577243652344 -66.531376953125 135.4731328125 -67.515205078125H139.236275390625Q140.80425146484376 -67.515205078125 142.7903544921875 -65.547548828125L142.37222753906252 -58.660751953125Q142.58129101562503 -57.3694775390625 142.58129101562503 -57.185009765625004Q142.16316406250002 -54.725439453125006 142.16316406250002 -52.265869140625V-50.298212890625Q142.16316406250002 -50.113745117187506 142.58129101562503 -48.330556640625005V-47.838642578125004Q142.58129101562503 -47.22375 141.9541005859375 -44.887158203125004V-44.149287109375Q142.99941796875 -41.32078125 142.99941796875 -40.951845703125Q141.745037109375 -40.951845703125 141.745037109375 -34.802919921875Q141.9541005859375 -30.621650390625003 142.37222753906252 -30.621650390625003V-30.375693359375003Q141.745037109375 -29.4533544921875 141.745037109375 -28.653994140625002V-26.440380859375Q141.745037109375 -25.456552734375002 142.99941796875 -23.980810546875002V-23.488896484375Q142.99941796875 -23.242939453125 142.7903544921875 -23.242939453125L142.99941796875 -22.751025390625003V-22.013154296875Q141.745037109375 -20.660390625 141.745037109375 -19.799541015625V-19.307626953125002L141.9541005859375 -17.585927734375L141.5359736328125 -17.339970703125H140.28159277343752Q138.03416040039065 -17.339970703125 137.145640625 -15.618271484375Q134.8459423828125 -15.864228515625001 134.0096884765625 -16.602099609375Q130.24654589843752 -16.602099609375 130.24654589843752 -14.880400390625H130.037482421875Q129.25349438476565 -15.74125 127.94684765625001 -15.864228515625001Q126.90153027343752 -15.49529296875 126.90153027343752 -14.142529296875L127.11059375 -12.912744140625001Q126.90153027343752 -11.191044921875001 126.90153027343752 -10.945087890625Q126.90153027343752 -10.6376416015625 127.11059375 -8.485517578125Q126.58793505859376 -2.336591796875 125.85621289062502 -2.336591796875Q125.01995898437501 -1.844677734375 124.3927685546875 -1.844677734375Q123.34745117187501 -1.844677734375 121.25681640625001 -2.090634765625Q120.57736010742188 -2.090634765625 117.493673828125 -1.5987207031250001Q116.13476123046875 -1.844677734375 114.77584863281251 -1.844677734375H114.14865820312501Q112.68521386718751 -1.844677734375 111.8489599609375 -1.352763671875Q110.01965454101563 -1.5987207031250001 109.54926171875 -1.5987207031250001Q106.30877783203125 -1.5987207031250001 101.60484960937501 -0.860849609375V-1.1068066406250001Q94.7057548828125 -0.4304248046875 94.7057548828125 0.6148925781250001Q94.39215966796876 1.5987207031250001 94.07856445312501 1.5987207031250001H93.6604375Q93.242310546875 1.5987207031250001 93.242310546875 1.1068066406250001V-0.122978515625Q89.68823144531251 -0.122978515625 89.68823144531251 -9.961259765625Q88.95650927734376 -15.864228515625001 88.224787109375 -15.864228515625001H87.80666015625Q87.28400146484375 -15.864228515625001 85.0888349609375 -14.880400390625H84.879771484375L83.8344541015625 -16.110185546875H81.3256923828125Q79.86224804687501 -16.110185546875 79.86224804687501 -14.634443359375H79.44412109375Q79.44412109375 -15.49529296875 77.5625498046875 -16.356142578125002Q75.57644677734375 -17.770395507812502 75.0537880859375 -20.291455078125L75.2628515625 -22.751025390625003V-26.932294921875002Q75.2628515625 -27.116762695312502 73.79940722656251 -28.162080078125V-28.899951171875003L75.47191503906251 -30.375693359375003V-32.835263671875005Q75.47191503906251 -34.065048828125 75.0537880859375 -34.065048828125Q74.89699047851563 -34.065048828125 73.3812802734375 -33.819091796875V-34.065048828125Q73.3812802734375 -36.278662109375 75.47191503906251 -38.000361328125V-43.411416015625L75.2628515625 -45.133115234375005H75.47191503906251Q75.47191503906251 -45.379072265625005 75.2628515625 -45.379072265625005Q75.47191503906251 -47.838642578125004 75.47191503906251 -49.068427734375V-51.527998046875005L73.79940722656251 -53.003740234375V-53.741611328125Q75.2628515625 -55.34033203125 75.2628515625 -56.201181640625V-58.906708984375Q75.2628515625 -59.398623046875 74.844724609375 -59.398623046875H74.008470703125L73.172216796875 -58.660751953125L72.9631533203125 -59.152666015625Q73.43354614257812 -60.5669189453125 75.2628515625 -62.104150390625Q75.2628515625 -67.269248046875 79.025994140625 -67.269248046875Q79.44412109375 -67.515205078125 79.6531845703125 -67.515205078125Q81.01209716796876 -66.285419921875 84.043517578125 -66.285419921875Q84.35711279296875 -67.269248046875 84.67070800781251 -67.269248046875H84.879771484375Q85.76829125976563 -65.793505859375 88.224787109375 -65.793505859375Q91.15167578125 -65.793505859375 91.15167578125 -69.728818359375L90.10635839843751 -68.74499023437501H89.2701044921875Q89.00877514648438 -68.74499023437501 88.224787109375 -69.974775390625V-71.450517578125Q88.27705297851563 -71.942431640625 88.64291406250001 -71.942431640625H89.2701044921875Q89.47916796875 -71.942431640625 89.47916796875 -71.696474609375Q91.569802734375 -71.696474609375 91.569802734375 -74.15604492187501V-75.877744140625Q91.569802734375 -76.5541259765625 88.4338505859375 -77.353486328125V-77.599443359375L88.8519775390625 -77.845400390625H89.06104101562501Q89.2701044921875 -77.845400390625 89.2701044921875 -77.599443359375Q90.5244853515625 -78.583271484375 91.15167578125 -78.583271484375Q91.20394165039063 -78.091357421875 91.569802734375 -78.091357421875Q92.98098120117189 -80.7353955078125 93.8695009765625 -81.04284179687501H94.7057548828125Q97.42358007812501 -81.04284179687501 100.35046875 -81.28879882812501ZM93.8695009765625 -62.842021484375Q93.13777880859375 -61.919682617187505 93.03324707031251 -60.382451171875005L93.45137402343751 -60.136494140625004H93.6604375L94.914818359375 -61.36627929687501H95.5420087890625Q95.85560400390625 -61.36627929687501 96.16919921875001 -60.628408203125005V-60.382451171875005Q95.751072265625 -59.214155273437505 93.03324707031251 -57.922880859375006Q93.03324707031251 -57.1235205078125 92.82418359375 -56.693095703125L93.03324707031251 -55.709267578125Q92.6151201171875 -52.88076171875 92.6151201171875 -51.527998046875005Q92.6151201171875 -51.159062500000005 93.45137402343751 -50.544169921875L93.8695009765625 -50.790126953125004H94.914818359375Q96.95318725585938 -50.298212890625 97.21451660156251 -50.298212890625H100.35046875Q101.86617895507813 -50.298212890625 104.94986523437501 -49.806298828125Q107.04050000000001 -49.806298828125 107.04050000000001 -52.019912109375Q107.24956347656251 -55.83224609375 107.24956347656251 -59.890537109375V-60.136494140625004Q107.24956347656251 -62.350107421875 105.786119140625 -62.350107421875L104.53173828125 -62.104150390625Q103.695484375 -62.596064453125 102.23204003906251 -62.596064453125H101.18672265625Q99.51421484375001 -62.596064453125 96.7963896484375 -62.350107421875Q96.43052856445313 -62.596064453125 95.9601357421875 -62.596064453125Q95.59427465820313 -62.350107421875 95.12388183593751 -62.350107421875Q94.44442553710938 -62.842021484375 93.8695009765625 -62.842021484375ZM96.16919921875001 -54.971396484375006Q97.005453125 -53.9260791015625 97.005453125 -53.003740234375L96.587326171875 -52.757783203125H95.3329453125Q95.01935009765626 -52.757783203125 94.7057548828125 -53.495654296875V-54.233525390625005Q94.7057548828125 -54.7869287109375 96.16919921875001 -54.971396484375006ZM104.113611328125 -53.003740234375Q104.42720654296875 -53.003740234375 105.36799218750001 -51.527998046875005L104.94986523437501 -51.282041015625005H104.32267480468751Q104.00907958984376 -51.282041015625005 103.695484375 -52.019912109375V-52.511826171875Q103.74775024414063 -53.003740234375 104.113611328125 -53.003740234375ZM72.9631533203125 -47.838642578125004H73.172216796875Q75.0537880859375 -46.48587890625 75.0537880859375 -46.116943359375Q75.0537880859375 -45.7480078125 74.2175341796875 -45.133115234375005Q73.90393896484376 -45.133115234375005 72.9631533203125 -47.100771484375ZM72.9631533203125 -42.181630859375005H73.3812802734375V-41.935673828125005Q73.3812802734375 -41.566738281250004 72.75408984375001 -41.197802734375L72.5450263671875 -41.689716796875004Q72.59729223632813 -42.181630859375005 72.9631533203125 -42.181630859375005ZM111.22176953125 -33.819091796875 110.80364257812501 -33.081220703125V-29.391865234375L112.0580234375 -28.408037109375V-28.162080078125Q112.0580234375 -27.424208984375003 111.0127060546875 -25.948466796875003Q110.80364257812501 -25.518041992187502 110.80364257812501 -24.718681640625V-23.242939453125Q110.80364257812501 -21.275283203125 113.9395947265625 -21.275283203125H114.14865820312501V-21.521240234375Q113.52146777343751 -22.443579101562502 113.52146777343751 -23.734853515625Q113.99186059570313 -24.964638671875 115.6121025390625 -24.964638671875Q116.23929296875001 -24.103789062500002 116.23929296875001 -21.275283203125Q116.03022949218752 -21.275283203125 116.03022949218752 -21.029326171875002Q119.42751098632813 -20.537412109375 121.8840068359375 -19.799541015625L122.30213378906251 -20.537412109375V-22.996982421875Q122.92932421875 -27.7316552734375 122.92932421875 -30.867607421875Q120.26376489257814 -32.0359033203125 111.22176953125 -33.819091796875ZM119.7933720703125 -30.129736328125002Q120.21149902343751 -30.068247070312502 120.21149902343751 -29.637822265625V-29.391865234375Q120.21149902343751 -29.022929687500003 119.58430859375001 -28.653994140625002L119.3752451171875 -29.145908203125V-29.637822265625Q119.42751098632813 -30.129736328125002 119.7933720703125 -30.129736328125002ZM121.0477529296875 -24.472724609375H121.25681640625001Q122.0930703125 -23.980810546875002 122.0930703125 -23.242939453125Q122.0930703125 -21.9516650390625 121.0477529296875 -21.275283203125H120.838689453125Q120.42056250000002 -21.275283203125 120.42056250000002 -21.767197265625Q120.57736010742188 -24.472724609375 121.0477529296875 -24.472724609375ZM72.9631533203125 -22.013154296875H73.3812802734375V-21.767197265625H72.9631533203125ZM74.42659765625001 -19.061669921875H74.844724609375Q75.2628515625 -19.0001806640625 75.2628515625 -18.569755859375V-18.323798828125Q75.0537880859375 -17.585927734375 74.008470703125 -17.585927734375L73.79940722656251 -18.077841796875003V-18.323798828125Q73.79940722656251 -18.692734375 74.42659765625001 -19.061669921875ZM129.8284189453125 -6.271904296875H130.037482421875Q130.35107763671874 -6.271904296875 130.6646728515625 -5.534033203125V-5.288076171875001Q130.6646728515625 -4.796162109375 130.24654589843752 -4.796162109375H130.037482421875Q129.72388720703125 -4.796162109375 129.41029199218752 -5.534033203125V-5.779990234375Q129.46255786132815 -6.271904296875 129.8284189453125 -6.271904296875ZM92.6151201171875 -4.796162109375Q92.6151201171875 -4.304248046875 92.40605664062501 -4.304248046875Q92.40605664062501 -2.8285058593750003 93.8695009765625 -2.8285058593750003H94.2876279296875Q94.7057548828125 -2.8285058593750003 94.7057548828125 -3.320419921875Q93.8695009765625 -4.796162109375 92.6151201171875 -4.796162109375ZM120.21149902343751 -1.1068066406250001Q122.51119726562501 0.0614892578125 122.51119726562501 1.5987207031250001Q121.30908227539064 3.074462890625 121.0477529296875 3.074462890625H120.838689453125Q120.62962597656251 3.074462890625 119.58430859375001 -0.860849609375Q120.002435546875 -1.1068066406250001 120.21149902343751 -1.1068066406250001ZM116.03022949218752 -0.368935546875Q116.4483564453125 -0.368935546875 116.4483564453125 0.368935546875Q116.29155883789063 2.8285058593750003 115.6121025390625 2.8285058593750003H114.56678515625Q113.9395947265625 2.582548828125 113.9395947265625 1.352763671875V1.1068066406250001Q114.77584863281251 -0.368935546875 116.03022949218752 -0.368935546875ZM99.3051513671875 -0.122978515625H100.768595703125Q101.08219091796876 -0.122978515625 101.3957861328125 0.6148925781250001V1.5987207031250001Q100.87312744140625 2.8285058593750003 99.7232783203125 2.8285058593750003Q98.88702441406251 2.5210595703125 98.88702441406251 0.6148925781250001V0.368935546875Q98.93929028320314 -0.122978515625 99.3051513671875 -0.122978515625Z M203.20969921875002 -81.90369140625H203.62782617187503V-81.41177734375H203.20969921875002ZM167.4598447265625 -80.1819921875Q170.96165795898438 -79.44412109375 171.64111425781252 -79.44412109375H177.07676464843752Q178.7492724609375 -79.44412109375 181.048970703125 -79.690078125L181.46709765625002 -79.44412109375L181.885224609375 -79.690078125L182.3033515625 -79.44412109375Q182.77374438476562 -79.44412109375 183.13960546875 -79.690078125Q183.60999829101564 -79.690078125 185.4393037109375 -79.44412109375Q186.6414187011719 -79.44412109375 188.7843193359375 -79.690078125Q191.55441040039062 -79.44412109375 193.38371582031252 -79.44412109375Q193.592779296875 -79.44412109375 195.0562236328125 -79.690078125Q196.4674020996094 -79.690078125 197.77404882812502 -77.23050781250001Q197.87858056640627 -77.23050781250001 198.610302734375 -77.47646484375001Q200.07374707031252 -76.92306152343751 200.07374707031252 -76.49263671875Q197.9831123046875 -74.9554052734375 197.9831123046875 -73.54115234375V-72.31136718750001L200.282810546875 -70.3437109375V-69.851796875Q200.282810546875 -68.8064794921875 198.610302734375 -66.9003125V-66.4083984375Q198.610302734375 -65.42457031250001 202.3734453125 -65.17861328125001L204.25501660156252 -66.16244140625Q205.30033398437502 -65.42457031250001 205.9275244140625 -65.42457031250001H206.55471484375002Q207.3387028808594 -65.42457031250001 213.24474609375 -66.4083984375Q215.23084912109377 -66.4083984375 215.5444443359375 -57.799902343750006Q215.5444443359375 -57.676923828125005 215.9625712890625 -54.110546875000004V-50.42119140625Q215.9625712890625 -45.256093750000005 210.9450478515625 -45.256093750000005H210.73598437500002L207.39096875 -45.502050781250006L206.34565136718751 -45.256093750000005Q205.77072680664065 -45.6865185546875 202.16438183593752 -45.99396484375Q200.54413989257813 -45.99396484375 199.02842968750002 -43.2884375Q198.7671003417969 -43.2884375 198.610302734375 -41.32078125Q199.23749316406253 -35.7252587890625 199.23749316406253 -32.712285156250005Q199.23749316406253 -30.437182617187503 195.47435058593751 -29.76080078125Q194.11543798828126 -30.252714843750002 192.756525390625 -30.252714843750002Q191.7112080078125 -30.252714843750002 190.24776367187502 -30.006757812500002Q187.84353369140626 -30.498671875000003 184.393986328125 -30.498671875000003L183.13960546875 -30.006757812500002L182.3033515625 -30.498671875000003L181.2580341796875 -30.252714843750002Q177.96528442382814 -30.74462890625 175.6133203125 -30.74462890625H175.4042568359375Q174.5680029296875 -30.74462890625 173.73174902343752 -30.498671875000003Q172.94776098632815 -30.74462890625 172.0592412109375 -30.74462890625Q167.4598447265625 -30.74462890625 167.4598447265625 -29.51484375Q167.0417177734375 -28.715483398437502 167.0417177734375 -28.0391015625V-27.301230468750003Q167.0417177734375 -24.349746093750003 168.50516210937502 -24.349746093750003Q168.81875732421875 -24.349746093750003 169.34141601562501 -20.660390625Q170.12540405273438 -20.1684765625 171.013923828125 -20.1684765625Q173.522685546875 -20.1684765625 173.522685546875 -21.89017578125V-22.1361328125H174.1498759765625V-21.39826171875L173.73174902343752 -20.660390625V-20.41443359375Q174.20214184570312 -20.41443359375 174.5680029296875 -20.1684765625L175.8223837890625 -20.41443359375Q178.12208203125002 -20.1684765625 179.79458984375 -20.1684765625Q181.885224609375 -20.1684765625 181.885224609375 -20.660390625L181.67616113281252 -21.152304687500003Q182.51241503906252 -22.628046875000003 182.51241503906252 -23.1199609375H182.721478515625Q183.13960546875 -23.1199609375 183.76679589843752 -20.1684765625H185.6483671875Q187.739001953125 -20.1684765625 187.739001953125 -20.660390625Q187.84353369140626 -23.611875 188.36619238281253 -23.611875H188.7843193359375Q189.411509765625 -23.36591796875 189.411509765625 -22.1361328125L188.99338281250002 -20.41443359375Q189.411509765625 -20.1684765625 189.6205732421875 -20.1684765625L190.45682714843753 -20.660390625Q191.920271484375 -20.1684765625 192.756525390625 -20.1684765625Q193.592779296875 -20.1684765625 195.47435058593751 -20.660390625Q195.68341406250002 -20.660390625 196.101541015625 -20.41443359375Q196.57193383789064 -20.41443359375 196.93779492187502 -20.660390625Q199.08069555664065 -20.41443359375 200.282810546875 -20.41443359375H200.91000097656251Q201.79852075195313 -20.41443359375 203.8368896484375 -23.36591796875H204.25501660156252Q204.62087768554687 -23.36591796875 204.88220703125 -22.1361328125Q204.6731435546875 -21.7057080078125 204.6731435546875 -21.152304687500003L204.88220703125 -20.660390625Q208.8544130859375 -20.906347656250002 211.57223828125 -21.39826171875Q216.38069824218752 -21.39826171875 216.38069824218752 -15.74125Q216.38069824218752 -14.9418896484375 216.17163476562502 -14.511464843750002L216.58976171875003 -6.886796875L216.38069824218752 -6.394882812500001Q216.58976171875003 -5.042119140625 216.58976171875003 -4.18126953125Q216.58976171875003 -1.4142529296875002 213.4538095703125 0.0L210.9450478515625 -0.24595703125Q209.11574243164063 -0.24595703125 206.7637783203125 0.0L202.3734453125 -0.73787109375Q202.16438183593752 -0.73787109375 202.16438183593752 -0.4919140625Q199.02842968750002 -0.73787109375 197.5649853515625 -0.73787109375H194.42903320312502Q193.5405134277344 -0.73787109375 192.1293349609375 -0.4919140625Q191.29308105468752 -0.983828125 189.82963671875 -0.983828125H188.575255859375Q185.54383544921876 -0.4919140625 185.230240234375 -0.4919140625Q183.5054665527344 -0.983828125 183.3486689453125 -0.983828125Q175.4042568359375 -0.73787109375 172.68643164062502 -0.73787109375Q172.32057055664063 -0.73787109375 171.43205078125 -0.24595703125Q169.34141601562501 -0.73787109375 167.25078125000002 -0.73787109375H167.0417177734375Q165.996400390625 -0.73787109375 163.6967021484375 0.0Q162.86044824218752 -0.4919140625 162.2332578125 -0.4919140625Q159.35863500976564 -0.4919140625 149.0622587890625 0.0Q147.44201684570314 -0.73787109375 146.34443359375 -3.9353125Q145.50817968750002 -4.304248046875 145.50817968750002 -4.67318359375V-4.919140625000001Q146.762560546875 -6.394882812500001 146.762560546875 -10.576152343750001V-12.789765625000001Q146.762560546875 -13.77359375 145.50817968750002 -14.757421875V-15.249335937500001Q146.9716240234375 -16.479121093750003 146.9716240234375 -16.725078125V-19.430605468750002Q146.9716240234375 -21.152304687500003 145.2991162109375 -21.152304687500003L145.090052734375 -21.64421875V-22.382089843750002Q145.090052734375 -23.4274072265625 146.9716240234375 -25.0876171875V-28.531015625000002Q146.9716240234375 -34.18802734375 149.0622587890625 -34.18802734375Q149.89851269531252 -34.18802734375 150.525703125 -34.9258984375Q150.7347666015625 -34.9258984375 152.1982109375 -34.433984375H152.8254013671875Q155.33416308593752 -34.433984375 155.33416308593752 -34.9258984375L157.42479785156252 -34.67994140625H158.8882421875Q163.487638671875 -34.67994140625 163.487638671875 -36.64759765625Q163.487638671875 -37.078022460937504 163.6967021484375 -39.59908203125Q163.6967021484375 -44.0877978515625 162.4423212890625 -45.010136718750005Q162.4423212890625 -45.379072265625005 160.978876953125 -46.97779296875V-47.46970703125Q161.03114282226562 -47.961621093750004 161.39700390625 -47.961621093750004H161.6060673828125Q162.96497998046877 -46.239921875 163.06951171875 -46.239921875H163.2785751953125Q163.53990454101563 -46.239921875 164.323892578125 -48.699492187500006Q164.63748779296876 -48.699492187500006 165.996400390625 -49.6833203125L166.832654296875 -49.43736328125Q167.56437646484375 -49.43736328125 168.7142255859375 -49.6833203125L171.2229873046875 -49.43736328125Q183.3486689453125 -49.92927734375 186.48462109375 -50.42119140625Q188.575255859375 -50.175234375 189.6205732421875 -50.175234375Q191.39761279296874 -50.42119140625 192.33839843750002 -50.42119140625V-50.6671484375Q191.7112080078125 -51.896933593750006 191.7112080078125 -52.38884765625Q192.02480322265626 -53.6186328125 193.17465234375 -53.6186328125H193.8018427734375V-53.864589843750004Q193.3314499511719 -61.4892578125 192.33839843750002 -61.4892578125Q191.2408151855469 -61.73521484375 190.24776367187502 -61.73521484375H188.99338281250002Q187.84353369140626 -61.73521484375 186.06649414062503 -61.4892578125Q185.85743066406252 -61.4892578125 185.85743066406252 -61.73521484375Q185.12570849609375 -61.4892578125 185.0211767578125 -61.4892578125Q179.48099462890627 -61.4892578125 160.978876953125 -60.259472656250004H160.142623046875Q156.90213916015625 -59.5216015625 155.961353515625 -59.5216015625Q155.85682177734375 -59.5216015625 153.24352832031252 -59.76755859375Q152.87766723632814 -59.76755859375 151.5710205078125 -59.27564453125Q146.762560546875 -59.27564453125 146.762560546875 -62.4730859375Q146.762560546875 -63.702871093750005 145.090052734375 -63.948828125000006V-64.19478515625Q145.090052734375 -66.1009521484375 147.3897509765625 -66.9003125L147.59881445312502 -68.62201171875V-69.851796875Q147.59881445312502 -70.712646484375 146.762560546875 -71.81945312500001V-72.06541015625001Q147.33748510742188 -72.86477050781251 148.2260048828125 -77.96837890625001Q149.00999291992187 -79.321142578125 151.5710205078125 -79.93603515625Q153.71392114257813 -79.690078125 154.9160361328125 -79.690078125H155.5432265625Q157.215734375 -79.690078125 159.5154326171875 -79.93603515625L159.9335595703125 -79.690078125L160.76981347656252 -79.93603515625Q164.11482910156252 -79.690078125 164.74201953125 -79.690078125Q167.25078125000002 -79.93603515625 167.4598447265625 -80.1819921875ZM182.721478515625 -58.5377734375H182.9305419921875Q183.3486689453125 -58.476284179687504 183.3486689453125 -58.045859375000006Q183.3486689453125 -57.553945312500005 182.9305419921875 -57.553945312500005H182.721478515625Q182.3033515625 -57.553945312500005 182.3033515625 -58.045859375000006Q182.35561743164064 -58.5377734375 182.721478515625 -58.5377734375ZM171.850177734375 -53.37267578125H172.0592412109375Q172.4773681640625 -53.311186523437506 172.4773681640625 -52.88076171875V-51.159062500000005Q172.4773681640625 -50.6671484375 172.0592412109375 -50.6671484375Q171.013923828125 -51.0975732421875 171.013923828125 -52.142890625Q171.43205078125 -53.249697265625 171.850177734375 -53.37267578125ZM177.4948916015625 -52.88076171875H177.703955078125Q178.9583359375 -52.2043798828125 178.9583359375 -51.159062500000005Q178.17434790039064 -50.42119140625 177.4948916015625 -50.42119140625L177.07676464843752 -51.159062500000005V-52.38884765625Q177.12903051757814 -52.88076171875 177.4948916015625 -52.88076171875ZM160.978876953125 -39.8450390625H161.81513085937502Q162.4423212890625 -39.59908203125 162.4423212890625 -38.369296875V-38.12333984375Q162.4423212890625 -37.63142578125 162.02419433593752 -37.63142578125H161.81513085937502Q161.44926977539063 -37.63142578125 160.56075 -39.353125000000006Q160.61301586914064 -39.8450390625 160.978876953125 -39.8450390625ZM172.0592412109375 -29.022929687500003H172.4773681640625L172.89549511718752 -28.776972656250003Q172.4773681640625 -27.301230468750003 172.0592412109375 -27.301230468750003H171.850177734375Q171.43205078125 -27.301230468750003 171.43205078125 -27.79314453125V-28.28505859375Q171.43205078125 -28.653994140625002 172.0592412109375 -29.022929687500003ZM177.28582812500002 -29.022929687500003Q178.3311455078125 -28.408037109375 178.3311455078125 -27.055273437500002L177.9130185546875 -26.80931640625H177.703955078125Q176.867701171875 -27.239741210937503 176.867701171875 -28.531015625000002Q176.91996704101564 -29.022929687500003 177.28582812500002 -29.022929687500003ZM192.54746191406252 -28.776972656250003H193.592779296875Q194.01090625 -28.715483398437502 194.01090625 -28.28505859375V-27.5471875Q194.01090625 -27.178251953125002 193.17465234375 -26.563359375H192.756525390625Q191.920271484375 -26.993784179687502 191.920271484375 -28.28505859375Q192.02480322265626 -28.28505859375 192.54746191406252 -28.776972656250003ZM152.1982109375 0.4919140625Q153.87071875 0.6763818359375 153.87071875 2.4595703125000004Q153.55712353515625 3.4433984375 153.24352832031252 3.4433984375H152.4072744140625Q151.83234985351564 3.4433984375 151.5710205078125 0.983828125Q151.5710205078125 0.4919140625 152.1982109375 0.4919140625ZM167.25078125000002 0.73787109375H168.50516210937502Q168.9232890625 0.7993603515625001 168.9232890625 1.2297851562500002V1.72169921875Q168.9232890625 3.68935546875 167.25078125000002 3.68935546875Q166.93718603515626 3.68935546875 166.41452734375002 2.70552734375V1.72169921875Q166.41452734375002 1.352763671875 167.25078125000002 0.73787109375ZM188.36619238281253 0.73787109375H188.575255859375Q188.88885107421876 0.73787109375 189.411509765625 1.72169921875Q189.411509765625 3.0129736328125003 188.7843193359375 3.1974414062500003H188.36619238281253Q187.739001953125 3.0129736328125003 187.739001953125 1.2297851562500002ZM173.3136220703125 0.983828125H173.522685546875Q173.94081250000002 1.0453173828125 173.94081250000002 1.4757421875Q173.94081250000002 1.96765625 173.522685546875 1.96765625L173.3136220703125 1.4757421875ZM146.762560546875 1.2297851562500002Q147.1806875 1.2912744140625 147.1806875 1.72169921875V2.2136132812500002Q147.1806875 2.70552734375 146.762560546875 2.70552734375H146.55349707031252Q146.1353701171875 2.70552734375 146.1353701171875 2.2136132812500002V1.96765625Q146.1353701171875 1.5987207031250001 146.762560546875 1.2297851562500002ZM204.045953125 1.72169921875H204.25501660156252Q204.6731435546875 1.7831884765625001 204.6731435546875 2.2136132812500002Q204.35954833984377 3.1974414062500003 204.045953125 3.1974414062500003H203.41876269531252Q203.5755603027344 1.72169921875 204.045953125 1.72169921875Z"/>
</svg>
