<svg xmlns="http://www.w3.org/2000/svg" viewBox="-2.00 -102.72 208.36 113.70" role="img" aria-hidden="true">
  <path fill="currentColor" d="M12.54380859375 -100.71940429687501H13.589125976562501V-100.47344726562501Q13.589125976562501 -99.1821728515625 12.961935546875 -98.99770507812501H12.54380859375Q12.125681640625 -98.99770507812501 12.125681640625 -99.48961914062501V-100.22749023437501Q12.177947509765627 -100.71940429687501 12.54380859375 -100.71940429687501ZM16.725078125000003 -96.784091796875H17.770395507812502Q18.3975859375 -96.538134765625 18.3975859375 -95.308349609375V-95.062392578125Q18.083990722656253 -94.07856445312501 16.9341416015625 -94.07856445312501H16.5160146484375Q16.20241943359375 -94.07856445312501 15.88882421875 -94.816435546875Q16.150153564453127 -96.66111328125001 16.725078125000003 -96.784091796875ZM27.3873154296875 -90.881123046875H28.014505859375003Q28.432632812500003 -90.81963378906251 28.432632812500003 -90.389208984375Q28.432632812500003 -90.02027343750001 27.8054423828125 -89.651337890625H27.3873154296875Q27.073720214843753 -89.651337890625 26.760125000000002 -90.389208984375ZM27.8054423828125 -81.28879882812501Q30.627799316406254 -80.79688476562501 31.986711914062504 -80.79688476562501Q32.195775390625 -80.79688476562501 33.659219726562505 -81.04284179687501L34.9136005859375 -80.79688476562501Q35.07039819335938 -80.79688476562501 36.167981445312506 -81.04284179687501Q37.735957519531254 -80.55092773437501 38.049552734375006 -80.55092773437501Q38.99033837890625 -80.55092773437501 42.8580126953125 -80.79688476562501Q52.8930595703125 -80.24348144531251 52.8930595703125 -79.321142578125Q53.311186523437506 -76.861572265625 54.774630859375 -76.861572265625V-76.123701171875L53.520250000000004 -75.13987304687501V-73.172216796875Q53.520250000000004 -72.31136718750001 54.356503906250005 -71.204560546875V-69.482861328125Q52.683996093750004 -67.9456298828125 52.683996093750004 -66.285419921875L53.10212304687501 -66.039462890625H53.938376953125L54.5655673828125 -66.531376953125Q59.11269799804688 -66.531376953125 62.92810644531251 -67.515205078125H66.6912490234375Q68.25922509765626 -67.515205078125 70.245328125 -65.547548828125L69.827201171875 -58.660751953125Q70.03626464843751 -57.3694775390625 70.03626464843751 -57.185009765625004Q69.61813769531251 -54.725439453125006 69.61813769531251 -52.265869140625V-50.298212890625Q69.61813769531251 -50.113745117187506 70.03626464843751 -48.330556640625005V-47.838642578125004Q70.03626464843751 -47.22375 69.40907421875 -44.887158203125004V-44.149287109375Q70.4543916015625 -41.32078125 70.4543916015625 -40.951845703125Q69.2000107421875 -40.951845703125 69.2000107421875 -34.802919921875Q69.40907421875 -30.621650390625003 69.827201171875 -30.621650390625003V-30.375693359375003Q69.2000107421875 -29.4533544921875 69.2000107421875 -28.653994140625002V-26.440380859375Q69.2000107421875 -25.456552734375002 70.4543916015625 -23.980810546875002V-23.488896484375Q70.4543916015625 -23.242939453125 70.245328125 -23.242939453125L70.4543916015625 -22.751025390625003V-22.013154296875Q69.2000107421875 -20.660390625 69.2000107421875 -19.799541015625V-19.307626953125002L69.40907421875 -17.585927734375L68.99094726562501 -17.339970703125H67.73656640625Q65.48913403320313 -17.339970703125 64.60061425781251 -15.618271484375Q62.300916015625006 -15.864228515625001 61.464662109375006 -16.602099609375Q57.70151953125001 -16.602099609375 57.70151953125001 -14.880400390625H57.4924560546875Q56.70846801757813 -15.74125 55.401821289062504 -15.864228515625001Q54.356503906250005 -15.49529296875 54.356503906250005 -14.142529296875L54.5655673828125 -12.912744140625001Q54.356503906250005 -11.191044921875001 54.356503906250005 -10.945087890625Q54.356503906250005 -10.6376416015625 54.5655673828125 -8.485517578125Q54.042908691406254 -2.336591796875 53.311186523437506 -2.336591796875Q52.474932617187505 -1.844677734375 51.8477421875 -1.844677734375Q50.802424804687504 -1.844677734375 48.71179003906251 -2.090634765625Q48.03233374023438 -2.090634765625 44.9486474609375 -1.5987207031250001Q43.58973486328125 -1.844677734375 42.230822265625 -1.844677734375H41.603631835937506Q40.1401875 -1.844677734375 39.30393359375 -1.352763671875Q37.47462817382813 -1.5987207031250001 37.0042353515625 -1.5987207031250001Q33.76375146484375 -1.5987207031250001 29.059823242187502 -0.860849609375V-1.1068066406250001Q22.160728515625003 -0.4304248046875 22.160728515625003 0.6148925781250001Q21.847133300781252 1.5987207031250001 21.5335380859375 1.5987207031250001H21.1154111328125Q20.6972841796875 1.5987207031250001 20.6972841796875 1.1068066406250001V-0.122978515625Q17.143205078125 -0.122978515625 17.143205078125 -9.961259765625Q16.411482910156252 -15.864228515625001 15.6797607421875 -15.864228515625001H15.2616337890625Q14.738975097656251 -15.864228515625001 12.54380859375 -14.880400390625H12.3347451171875L11.289427734375002 -16.110185546875H8.780666015625Q7.317221679687501 -16.110185546875 7.317221679687501 -14.634443359375H6.899094726562501Q6.899094726562501 -15.49529296875 5.0175234375 -16.356142578125002Q3.03142041015625 -17.770395507812502 2.50876171875 -20.291455078125L2.7178251953125003 -22.751025390625003V-26.932294921875002Q2.7178251953125003 -27.116762695312502 1.254380859375 -28.162080078125V-28.899951171875003L2.926888671875 -30.375693359375003V-32.835263671875005Q2.926888671875 -34.065048828125 2.50876171875 -34.065048828125Q2.351964111328125 -34.065048828125 0.8362539062500001 -33.819091796875V-34.065048828125Q0.8362539062500001 -36.278662109375 2.926888671875 -38.000361328125V-43.411416015625L2.7178251953125003 -45.133115234375005H2.926888671875Q2.926888671875 -45.379072265625005 2.7178251953125003 -45.379072265625005Q2.926888671875 -47.838642578125004 2.926888671875 -49.068427734375V-51.527998046875005L1.254380859375 -53.003740234375V-53.741611328125Q2.7178251953125003 -55.34033203125 2.7178251953125003 -56.201181640625V-58.906708984375Q2.7178251953125003 -59.398623046875 2.2996982421875 -59.398623046875H1.4634443359375L0.6271904296875 -58.660751953125L0.41812695312500003 -59.152666015625Q0.8885197753906251 -60.5669189453125 2.7178251953125003 -62.104150390625Q2.7178251953125003 -67.269248046875 6.4809677734375 -67.269248046875Q6.899094726562501 -67.515205078125 7.108158203125001 -67.515205078125Q8.46707080078125 -66.285419921875 11.498491210937502 -66.285419921875Q11.812086425781251 -67.269248046875 12.125681640625 -67.269248046875H12.3347451171875Q13.223264892578126 -65.793505859375 15.6797607421875 -65.793505859375Q18.606649414062503 -65.793505859375 18.606649414062503 -69.728818359375L17.56133203125 -68.74499023437501H16.725078125000003Q16.463748779296875 -68.74499023437501 15.6797607421875 -69.974775390625V-71.450517578125Q15.732026611328127 -71.942431640625 16.0978876953125 -71.942431640625H16.725078125000003Q16.9341416015625 -71.942431640625 16.9341416015625 -71.696474609375Q19.024776367187503 -71.696474609375 19.024776367187503 -74.15604492187501V-75.877744140625Q19.024776367187503 -76.5541259765625 15.88882421875 -77.353486328125V-77.599443359375L16.306951171875003 -77.845400390625H16.5160146484375Q16.725078125000003 -77.845400390625 16.725078125000003 -77.599443359375Q17.979458984375 -78.583271484375 18.606649414062503 -78.583271484375Q18.658915283203125 -78.091357421875 19.024776367187503 -78.091357421875Q20.435954833984376 -80.7353955078125 21.324474609375002 -81.04284179687501H22.160728515625003Q24.878553710937503 -81.04284179687501 27.8054423828125 -81.28879882812501ZM21.324474609375002 -62.842021484375Q20.59275244140625 -61.919682617187505 20.488220703125002 -60.382451171875005L20.906347656250002 -60.136494140625004H21.1154111328125L22.3697919921875 -61.36627929687501H22.996982421875003Q23.31057763671875 -61.36627929687501 23.624172851562502 -60.628408203125005V-60.382451171875005Q23.2060458984375 -59.214155273437505 20.488220703125002 -57.922880859375006Q20.488220703125002 -57.1235205078125 20.2791572265625 -56.693095703125L20.488220703125002 -55.709267578125Q20.07009375 -52.88076171875 20.07009375 -51.527998046875005Q20.07009375 -51.159062500000005 20.906347656250002 -50.544169921875L21.324474609375002 -50.790126953125004H22.3697919921875Q24.408160888671876 -50.298212890625 24.669490234375 -50.298212890625H27.8054423828125Q29.321152587890627 -50.298212890625 32.4048388671875 -49.806298828125Q34.495473632812505 -49.806298828125 34.495473632812505 -52.019912109375Q34.704537109375 -55.83224609375 34.704537109375 -59.890537109375V-60.136494140625004Q34.704537109375 -62.350107421875 33.2410927734375 -62.350107421875L31.986711914062504 -62.104150390625Q31.150458007812503 -62.596064453125 29.687013671875004 -62.596064453125H28.6416962890625Q26.9691884765625 -62.596064453125 24.25136328125 -62.350107421875Q23.885502197265627 -62.596064453125 23.415109375 -62.596064453125Q23.049248291015626 -62.350107421875 22.578855468750003 -62.350107421875Q21.899399169921878 -62.842021484375 21.324474609375002 -62.842021484375ZM23.624172851562502 -54.971396484375006Q24.460426757812503 -53.9260791015625 24.460426757812503 -53.003740234375L24.042299804687502 -52.757783203125H22.7879189453125Q22.47432373046875 -52.757783203125 22.160728515625003 -53.495654296875V-54.233525390625005Q22.160728515625003 -54.7869287109375 23.624172851562502 -54.971396484375006ZM31.568584960937503 -53.003740234375Q31.88218017578125 -53.003740234375 32.822965820312504 -51.527998046875005L32.4048388671875 -51.282041015625005H31.7776484375Q31.464053222656254 -51.282041015625005 31.150458007812503 -52.019912109375V-52.511826171875Q31.202723876953126 -53.003740234375 31.568584960937503 -53.003740234375ZM0.41812695312500003 -47.838642578125004H0.6271904296875Q2.50876171875 -46.48587890625 2.50876171875 -46.116943359375Q2.50876171875 -45.7480078125 1.6725078125000001 -45.133115234375005Q1.3589125976562502 -45.133115234375005 0.41812695312500003 -47.100771484375ZM0.41812695312500003 -42.181630859375005H0.8362539062500001V-41.935673828125005Q0.8362539062500001 -41.566738281250004 0.20906347656250002 -41.197802734375L0.0 -41.689716796875004Q0.052265869140625004 -42.181630859375005 0.41812695312500003 -42.181630859375005ZM38.6767431640625 -33.819091796875 38.258616210937504 -33.081220703125V-29.391865234375L39.5129970703125 -28.408037109375V-28.162080078125Q39.5129970703125 -27.424208984375003 38.4676796875 -25.948466796875003Q38.258616210937504 -25.518041992187502 38.258616210937504 -24.718681640625V-23.242939453125Q38.258616210937504 -21.275283203125 41.394568359375 -21.275283203125H41.603631835937506V-21.521240234375Q40.976441406250004 -22.443579101562502 40.976441406250004 -23.734853515625Q41.44683422851563 -24.964638671875 43.067076171875 -24.964638671875Q43.694266601562504 -24.103789062500002 43.694266601562504 -21.275283203125Q43.485203125000005 -21.275283203125 43.485203125000005 -21.029326171875002Q46.88248461914063 -20.537412109375 49.33898046875 -19.799541015625L49.757107421875006 -20.537412109375V-22.996982421875Q50.3842978515625 -27.7316552734375 50.3842978515625 -30.867607421875Q47.71873852539063 -32.0359033203125 38.6767431640625 -33.819091796875ZM47.248345703125004 -30.129736328125002Q47.66647265625 -30.068247070312502 47.66647265625 -29.637822265625V-29.391865234375Q47.66647265625 -29.022929687500003 47.039282226562506 -28.653994140625002L46.83021875 -29.145908203125V-29.637822265625Q46.88248461914063 -30.129736328125002 47.248345703125004 -30.129736328125002ZM48.5027265625 -24.472724609375H48.71179003906251Q49.54804394531251 -23.980810546875002 49.54804394531251 -23.242939453125Q49.54804394531251 -21.9516650390625 48.5027265625 -21.275283203125H48.2936630859375Q47.875536132812506 -21.275283203125 47.875536132812506 -21.767197265625Q48.03233374023438 -24.472724609375 48.5027265625 -24.472724609375ZM0.41812695312500003 -22.013154296875H0.8362539062500001V-21.767197265625H0.41812695312500003ZM1.8815712890625003 -19.061669921875H2.2996982421875Q2.7178251953125003 -19.0001806640625 2.7178251953125003 -18.569755859375V-18.323798828125Q2.50876171875 -17.585927734375 1.4634443359375 -17.585927734375L1.254380859375 -18.077841796875003V-18.323798828125Q1.254380859375 -18.692734375 1.8815712890625003 -19.061669921875ZM57.283392578125 -6.271904296875H57.4924560546875Q57.80605126953125 -6.271904296875 58.119646484375004 -5.534033203125V-5.288076171875001Q58.119646484375004 -4.796162109375 57.70151953125001 -4.796162109375H57.4924560546875Q57.17886083984376 -4.796162109375 56.865265625000006 -5.534033203125V-5.779990234375Q56.91753149414063 -6.271904296875 57.283392578125 -6.271904296875ZM20.07009375 -4.796162109375Q20.07009375 -4.304248046875 19.861030273437503 -4.304248046875Q19.861030273437503 -2.8285058593750003 21.324474609375002 -2.8285058593750003H21.742601562500003Q22.160728515625003 -2.8285058593750003 22.160728515625003 -3.320419921875Q21.324474609375002 -4.796162109375 20.07009375 -4.796162109375ZM47.66647265625 -1.1068066406250001Q49.966170898437504 0.0614892578125 49.966170898437504 1.5987207031250001Q48.764055908203126 3.074462890625 48.5027265625 3.074462890625H48.2936630859375Q48.084599609375005 3.074462890625 47.039282226562506 -0.860849609375Q47.4574091796875 -1.1068066406250001 47.66647265625 -1.1068066406250001ZM43.485203125000005 -0.368935546875Q43.903330078125 -0.368935546875 43.903330078125 0.368935546875Q43.74653247070313 2.8285058593750003 43.067076171875 2.8285058593750003H42.0217587890625Q41.394568359375 2.582548828125 41.394568359375 1.352763671875V1.1068066406250001Q42.230822265625 -0.368935546875 43.485203125000005 -0.368935546875ZM26.760125000000002 -0.122978515625H28.2235693359375Q28.537164550781252 -0.122978515625 28.850759765625003 0.6148925781250001V1.5987207031250001Q28.328101074218754 2.8285058593750003 27.178251953125002 2.8285058593750003Q26.341998046875002 2.5210595703125 26.341998046875002 0.6148925781250001V0.368935546875Q26.39426391601563 -0.122978515625 26.760125000000002 -0.122978515625Z M85.0888349609375 -100.71940429687501H86.13415234375V-100.47344726562501Q86.13415234375 -99.1821728515625 85.5069619140625 -98.99770507812501H85.0888349609375Q84.67070800781251 -98.99770507812501 84.67070800781251 -99.48961914062501V-100.22749023437501Q84.72297387695313 -100.71940429687501 85.0888349609375 -100.71940429687501ZM89.2701044921875 -96.784091796875H90.315421875Q90.9426123046875 -96.538134765625 90.9426123046875 -95.308349609375V-95.062392578125Q90.62901708984376 -94.07856445312501 89.47916796875 -94.07856445312501H89.06104101562501Q88.74744580078125 -94.07856445312501 88.4338505859375 -94.816435546875Q88.69517993164064 -96.66111328125001 89.2701044921875 -96.784091796875ZM99.93234179687501 -90.881123046875H100.55953222656251Q100.9776591796875 -90.81963378906251 100.9776591796875 -90.389208984375Q100.9776591796875 -90.02027343750001 100.35046875 -89.651337890625H99.93234179687501Q99.61874658203126 -89.651337890625 99.3051513671875 -90.389208984375ZM100.35046875 -81.28879882812501Q103.17282568359376 -80.79688476562501 104.53173828125 -80.79688476562501Q104.7408017578125 -80.79688476562501 106.20424609375002 -81.04284179687501L107.458626953125 -80.79688476562501Q107.61542456054688 -80.79688476562501 108.71300781250001 -81.04284179687501Q110.28098388671876 -80.55092773437501 110.59457910156252 -80.55092773437501Q111.53536474609376 -80.55092773437501 115.4030390625 -80.79688476562501Q125.4380859375 -80.24348144531251 125.4380859375 -79.321142578125Q125.85621289062502 -76.861572265625 127.3196572265625 -76.861572265625V-76.123701171875L126.06527636718751 -75.13987304687501V-73.172216796875Q126.06527636718751 -72.31136718750001 126.90153027343752 -71.204560546875V-69.482861328125Q125.2290224609375 -67.9456298828125 125.2290224609375 -66.285419921875L125.64714941406251 -66.039462890625H126.4834033203125L127.11059375 -66.531376953125Q131.6577243652344 -66.531376953125 135.4731328125 -67.515205078125H139.236275390625Q140.80425146484376 -67.515205078125 142.7903544921875 -65.547548828125L142.37222753906252 -58.660751953125Q142.58129101562503 -57.3694775390625 142.58129101562503 -57.185009765625004Q142.16316406250002 -54.725439453125006 142.16316406250002 -52.265869140625V-50.298212890625Q142.16316406250002 -50.113745117187506 142.58129101562503 -48.330556640625005V-47.838642578125004Q142.58129101562503 -47.22375 141.9541005859375 -44.887158203125004V-44.149287109375Q142.99941796875 -41.32078125 142.99941796875 -40.951845703125Q141.745037109375 -40.951845703125 141.745037109375 -34.802919921875Q141.9541005859375 -30.621650390625003 142.37222753906252 -30.621650390625003V-30.375693359375003Q141.745037109375 -29.4533544921875 141.745037109375 -28.653994140625002V-26.440380859375Q141.745037109375 -25.456552734375002 142.99941796875 -23.980810546875002V-23.488896484375Q142.99941796875 -23.242939453125 142.7903544921875 -23.242939453125L142.99941796875 -22.751025390625003V-22.013154296875Q141.745037109375 -20.660390625 141.745037109375 -19.799541015625V-19.307626953125002L141.9541005859375 -17.585927734375L141.5359736328125 -17.339970703125H140.28159277343752Q138.03416040039065 -17.339970703125 137.145640625 -15.618271484375Q134.8459423828125 -15.864228515625001 134.0096884765625 -16.602099609375Q130.24654589843752 -16.602099609375 130.24654589843752 -14.880400390625H130.037482421875Q129.25349438476565 -15.74125 127.94684765625001 -15.864228515625001Q126.90153027343752 -15.49529296875 126.90153027343752 -14.142529296875L127.11059375 -12.912744140625001Q126.90153027343752 -11.191044921875001 126.90153027343752 -10.945087890625Q126.90153027343752 -10.6376416015625 127.11059375 -8.485517578125Q126.58793505859376 -2.336591796875 125.85621289062502 -2.336591796875Q125.01995898437501 -1.844677734375 124.3927685546875 -1.844677734375Q123.34745117187501 -1.844677734375 121.25681640625001 -2.090634765625Q120.57736010742188 -2.090634765625 117.493673828125 -1.5987207031250001Q116.13476123046875 -1.844677734375 114.77584863281251 -1.844677734375H114.14865820312501Q112.68521386718751 -1.844677734375 111.8489599609375 -1.352763671875Q110.01965454101563 -1.5987207031250001 109.54926171875 -1.5987207031250001Q106.30877783203125 -1.5987207031250001 101.60484960937501 -0.860849609375V-1.1068066406250001Q94.7057548828125 -0.4304248046875 94.7057548828125 0.6148925781250001Q94.39215966796876 1.5987207031250001 94.07856445312501 1.5987207031250001H93.6604375Q93.242310546875 1.5987207031250001 93.242310546875 1.1068066406250001V-0.122978515625Q89.68823144531251 -0.122978515625 89.68823144531251 -9.961259765625Q88.95650927734376 -15.864228515625001 88.224787109375 -15.864228515625001H87.80666015625Q87.28400146484375 -15.864228515625001 85.0888349609375 -14.880400390625H84.879771484375L83.8344541015625 -16.110185546875H81.3256923828125Q79.86224804687501 -16.110185546875 79.86224804687501 -14.634443359375H79.44412109375Q79.44412109375 -15.49529296875 77.5625498046875 -16.356142578125002Q75.57644677734375 -17.770395507812502 75.0537880859375 -20.291455078125L75.2628515625 -22.751025390625003V-26.932294921875002Q75.2628515625 -27.116762695312502 73.79940722656251 -28.162080078125V-28.899951171875003L75.47191503906251 -30.375693359375003V-32.835263671875005Q75.47191503906251 -34.065048828125 75.0537880859375 -34.065048828125Q74.89699047851563 -34.065048828125 73.3812802734375 -33.819091796875V-34.065048828125Q73.3812802734375 -36.278662109375 75.47191503906251 -38.000361328125V-43.411416015625L75.2628515625 -45.133115234375005H75.47191503906251Q75.47191503906251 -45.379072265625005 75.2628515625 -45.379072265625005Q75.47191503906251 -47.838642578125004 75.47191503906251 -49.068427734375V-51.527998046875005L73.79940722656251 -53.003740234375V-53.741611328125Q75.2628515625 -55.34033203125 75.2628515625 -56.201181640625V-58.906708984375Q75.2628515625 -59.398623046875 74.844724609375 -59.398623046875H74.008470703125L73.172216796875 -58.660751953125L72.9631533203125 -59.152666015625Q73.43354614257812 -60.5669189453125 75.2628515625 -62.104150390625Q75.2628515625 -67.269248046875 79.025994140625 -67.269248046875Q79.44412109375 -67.515205078125 79.6531845703125 -67.515205078125Q81.01209716796876 -66.285419921875 84.043517578125 -66.285419921875Q84.35711279296875 -67.269248046875 84.67070800781251 -67.269248046875H84.879771484375Q85.76829125976563 -65.793505859375 88.224787109375 -65.793505859375Q91.15167578125 -65.793505859375 91.15167578125 -69.728818359375L90.10635839843751 -68.74499023437501H89.2701044921875Q89.00877514648438 -68.74499023437501 88.224787109375 -69.974775390625V-71.450517578125Q88.27705297851563 -71.942431640625 88.64291406250001 -71.942431640625H89.2701044921875Q89.47916796875 -71.942431640625 89.47916796875 -71.696474609375Q91.569802734375 -71.696474609375 91.569802734375 -74.15604492187501V-75.877744140625Q91.569802734375 -76.5541259765625 88.4338505859375 -77.353486328125V-77.599443359375L88.8519775390625 -77.845400390625H89.06104101562501Q89.2701044921875 -77.845400390625 89.2701044921875 -77.599443359375Q90.5244853515625 -78.583271484375 91.15167578125 -78.583271484375Q91.20394165039063 -78.091357421875 91.569802734375 -78.091357421875Q92.98098120117189 -80.7353955078125 93.8695009765625 -81.04284179687501H94.7057548828125Q97.42358007812501 -81.04284179687501 100.35046875 -81.28879882812501ZM93.8695009765625 -62.842021484375Q93.13777880859375 -61.919682617187505 93.03324707031251 -60.382451171875005L93.45137402343751 -60.136494140625004H93.6604375L94.914818359375 -61.36627929687501H95.5420087890625Q95.85560400390625 -61.36627929687501 96.16919921875001 -60.628408203125005V-60.382451171875005Q95.751072265625 -59.214155273437505 93.03324707031251 -57.922880859375006Q93.03324707031251 -57.1235205078125 92.82418359375 -56.693095703125L93.03324707031251 -55.709267578125Q92.6151201171875 -52.88076171875 92.6151201171875 -51.527998046875005Q92.6151201171875 -51.159062500000005 93.45137402343751 -50.544169921875L93.8695009765625 -50.790126953125004H94.914818359375Q96.95318725585938 -50.298212890625 97.21451660156251 -50.298212890625H100.35046875Q101.86617895507813 -50.298212890625 104.94986523437501 -49.806298828125Q107.04050000000001 -49.806298828125 107.04050000000001 -52.019912109375Q107.24956347656251 -55.83224609375 107.24956347656251 -59.890537109375V-60.136494140625004Q107.24956347656251 -62.350107421875 105.786119140625 -62.350107421875L104.53173828125 -62.104150390625Q103.695484375 -62.596064453125 102.23204003906251 -62.596064453125H101.18672265625Q99.51421484375001 -62.596064453125 96.7963896484375 -62.350107421875Q96.43052856445313 -62.596064453125 95.9601357421875 -62.596064453125Q95.59427465820313 -62.350107421875 95.12388183593751 -62.350107421875Q94.44442553710938 -62.842021484375 93.8695009765625 -62.842021484375ZM96.16919921875001 -54.971396484375006Q97.005453125 -53.9260791015625 97.005453125 -53.003740234375L96.587326171875 -52.757783203125H95.3329453125Q95.01935009765626 -52.757783203125 94.7057548828125 -53.495654296875V-54.233525390625005Q94.7057548828125 -54.7869287109375 96.16919921875001 -54.971396484375006ZM104.113611328125 -53.003740234375Q104.42720654296875 -53.003740234375 105.36799218750001 -51.527998046875005L104.94986523437501 -51.282041015625005H104.32267480468751Q104.00907958984376 -51.282041015625005 103.695484375 -52.019912109375V-52.511826171875Q103.74775024414063 -53.003740234375 104.113611328125 -53.003740234375ZM72.9631533203125 -47.838642578125004H73.172216796875Q75.0537880859375 -46.48587890625 75.0537880859375 -46.116943359375Q75.0537880859375 -45.7480078125 74.2175341796875 -45.133115234375005Q73.90393896484376 -45.133115234375005 72.9631533203125 -47.100771484375ZM72.9631533203125 -42.181630859375005H73.3812802734375V-41.935673828125005Q73.3812802734375 -41.566738281250004 72.75408984375001 -41.197802734375L72.5450263671875 -41.689716796875004Q72.59729223632813 -42.181630859375005 72.9631533203125 -42.181630859375005ZM111.22176953125 -33.819091796875 110.80364257812501 -33.081220703125V-29.391865234375L112.0580234375 -28.408037109375V-28.162080078125Q112.0580234375 -27.424208984375003 111.0127060546875 -25.948466796875003Q110.80364257812501 -25.518041992187502 110.80364257812501 -24.718681640625V-23.242939453125Q110.80364257812501 -21.275283203125 113.9395947265625 -21.275283203125H114.14865820312501V-21.521240234375Q113.52146777343751 -22.443579101562502 113.52146777343751 -23.734853515625Q113.99186059570313 -24.964638671875 115.6121025390625 -24.964638671875Q116.23929296875001 -24.103789062500002 116.23929296875001 -21.275283203125Q116.03022949218752 -21.275283203125 116.03022949218752 -21.029326171875002Q119.42751098632813 -20.537412109375 121.8840068359375 -19.799541015625L122.30213378906251 -20.537412109375V-22.996982421875Q122.92932421875 -27.7316552734375 122.92932421875 -30.867607421875Q120.26376489257814 -32.0359033203125 111.22176953125 -33.819091796875ZM119.7933720703125 -30.129736328125002Q120.21149902343751 -30.068247070312502 120.21149902343751 -29.637822265625V-29.391865234375Q120.21149902343751 -29.022929687500003 119.58430859375001 -28.653994140625002L119.3752451171875 -29.145908203125V-29.637822265625Q119.42751098632813 -30.129736328125002 119.7933720703125 -30.129736328125002ZM121.0477529296875 -24.472724609375H121.25681640625001Q122.0930703125 -23.980810546875002 122.0930703125 -23.242939453125Q122.0930703125 -21.9516650390625 121.0477529296875 -21.275283203125H120.838689453125Q120.42056250000002 -21.275283203125 120.42056250000002 -21.767197265625Q120.57736010742188 -24.472724609375 121.0477529296875 -24.472724609375ZM72.9631533203125 -22.013154296875H73.3812802734375V-21.767197265625H72.9631533203125ZM74.42659765625001 -19.061669921875H74.844724609375Q75.2628515625 -19.0001806640625 75.2628515625 -18.569755859375V-18.323798828125Q75.0537880859375 -17.585927734375 74.008470703125 -17.585927734375L73.79940722656251 -18.077841796875003V-18.323798828125Q73.79940722656251 -18.692734375 74.42659765625001 -19.061669921875ZM129.8284189453125 -6.271904296875H130.037482421875Q130.35107763671874 -6.271904296875 130.6646728515625 -5.534033203125V-5.288076171875001Q130.6646728515625 -4.796162109375 130.24654589843752 -4.796162109375H130.037482421875Q129.72388720703125 -4.796162109375 129.41029199218752 -5.534033203125V-5.779990234375Q129.46255786132815 -6.271904296875 129.8284189453125 -6.271904296875ZM92.6151201171875 -4.796162109375Q92.6151201171875 -4.304248046875 92.40605664062501 -4.304248046875Q92.40605664062501 -2.8285058593750003 93.8695009765625 -2.8285058593750003H94.2876279296875Q94.7057548828125 -2.8285058593750003 94.7057548828125 -3.320419921875Q93.8695009765625 -4.796162109375 92.6151201171875 -4.796162109375ZM120.21149902343751 -1.1068066406250001Q122.51119726562501 0.0614892578125 122.51119726562501 1.5987207031250001Q121.30908227539064 3.074462890625 121.0477529296875 3.074462890625H120.838689453125Q120.62962597656251 3.074462890625 119.58430859375001 -0.860849609375Q120.002435546875 -1.1068066406250001 120.21149902343751 -1.1068066406250001ZM116.03022949218752 -0.368935546875Q116.4483564453125 -0.368935546875 116.4483564453125 0.368935546875Q116.29155883789063 2.8285058593750003 115.6121025390625 2.8285058593750003H114.56678515625Q113.9395947265625 2.582548828125 113.9395947265625 1.352763671875V1.1068066406250001Q114.77584863281251 -0.368935546875 116.03022949218752 -0.368935546875ZM99.3051513671875 -0.122978515625H100.768595703125Q101.08219091796876 -0.122978515625 101.3957861328125 0.6148925781250001V1.5987207031250001Q100.87312744140625 2.8285058593750003 99.7232783203125 2.8285058593750003Q98.88702441406251 2.5210595703125 98.88702441406251 0.6148925781250001V0.368935546875Q98.93929028320314 -0.122978515625 99.3051513671875 -0.122978515625Z M203.94142138671876 -95.308349609375 204.35954833984377 -94.570478515625V-93.58665039062501Q204.35954833984377 -93.21771484375 203.73235791015625 -92.84877929687501H203.10516748046877Q202.791572265625 -92.84877929687501 202.47797705078125 -93.58665039062501Q202.47797705078125 -95.308349609375 203.94142138671876 -95.308349609375ZM184.08039111328125 -82.764541015625Q184.393986328125 -82.764541015625 184.70758154296877 -82.026669921875V-81.28879882812501Q184.70758154296877 -80.79688476562501 184.28945458984376 -80.79688476562501H184.08039111328125Q183.66226416015627 -80.79688476562501 183.66226416015627 -81.28879882812501V-82.272626953125Q183.7145300292969 -82.764541015625 184.08039111328125 -82.764541015625ZM178.22661376953127 -82.272626953125H178.43567724609375Q178.85380419921876 -82.2111376953125 178.85380419921876 -81.78071289062501Q178.85380419921876 -81.28879882812501 178.43567724609375 -81.28879882812501H178.22661376953127Q177.80848681640626 -81.28879882812501 177.80848681640626 -81.78071289062501Q177.86075268554688 -82.272626953125 178.22661376953127 -82.272626953125ZM198.71483447265626 -82.272626953125H198.92389794921877Q199.34202490234375 -82.2111376953125 199.34202490234375 -81.78071289062501V-81.53475585937501Q199.34202490234375 -81.04284179687501 198.92389794921877 -81.04284179687501H198.71483447265626Q198.29670751953125 -81.04284179687501 198.29670751953125 -81.53475585937501V-81.78071289062501Q198.34897338867188 -82.272626953125 198.71483447265626 -82.272626953125ZM185.54383544921876 -80.55092773437501Q187.5299384765625 -80.05901367187501 188.67978759765626 -80.05901367187501Q191.29308105468752 -80.05901367187501 198.50577099609376 -79.813056640625Q199.8124177246094 -79.813056640625 200.80546923828126 -75.631787109375Q201.01453271484377 -75.631787109375 201.01453271484377 -75.38583007812501V-74.89391601562501Q200.38734228515625 -72.4958349609375 200.38734228515625 -68.99094726562501L200.59640576171876 -66.039462890625Q200.38734228515625 -65.055634765625 200.38734228515625 -64.317763671875Q200.80546923828126 -63.5184033203125 200.80546923828126 -62.842021484375V-62.596064453125Q200.38734228515625 -60.874365234375006 200.38734228515625 -60.628408203125005V-60.136494140625004Q200.38734228515625 -59.70606933593751 201.22359619140627 -57.676923828125005Q200.38734228515625 -54.971396484375006 200.38734228515625 -54.233525390625005V-51.773955078125006Q200.38734228515625 -49.806298828125 200.59640576171876 -48.576513671875006Q200.38734228515625 -47.039282226562506 200.38734228515625 -45.133115234375005V-44.641201171875004Q200.38734228515625 -43.226948242187504 200.59640576171876 -40.705888671875Q200.38734228515625 -40.213974609375 200.38734228515625 -39.968017578125L200.59640576171876 -38.738232421875004Q200.38734228515625 -36.2171728515625 200.38734228515625 -34.802919921875Q200.38734228515625 -34.18802734375 201.22359619140627 -33.327177734375Q201.22359619140627 -32.22037109375 200.38734228515625 -31.113564453125Q200.38734228515625 -30.9290966796875 200.59640576171876 -29.637822265625Q200.38734228515625 -26.563359375 200.38734228515625 -26.440380859375Q200.80546923828126 -24.349746093750003 200.80546923828126 -23.734853515625Q200.80546923828126 -23.4274072265625 200.59640576171876 -21.275283203125Q200.80546923828126 -19.9840087890625 200.80546923828126 -19.799541015625L200.59640576171876 -18.323798828125Q200.80546923828126 -11.8059375 201.22359619140627 -10.699130859375Q201.22359619140627 -10.1457275390625 201.01453271484377 -9.715302734375001L201.43265966796878 -2.8285058593750003Q200.7009375 -0.368935546875 198.50577099609376 -0.368935546875H194.74262841796877Q194.48129907226564 -0.368935546875 192.44293017578127 -0.860849609375H189.93416845703126Q189.46377563476562 -0.860849609375 189.09791455078127 -1.1068066406250001Q188.73205346679688 -0.860849609375 188.05259716796877 -0.860849609375Q187.42540673828125 -0.860849609375 186.58915283203126 -1.1068066406250001Q185.49156958007814 -0.860849609375 184.49851806640626 -0.860849609375H184.08039111328125Q180.94443896484376 -0.860849609375 180.94443896484376 -4.304248046875L180.52631201171874 -7.255732421875001Q180.73537548828125 -10.0227490234375 180.73537548828125 -12.174873046875001V-13.404658203125Q180.73537548828125 -14.8189111328125 180.52631201171874 -17.339970703125L180.94443896484376 -18.815712890625Q180.73537548828125 -19.307626953125002 180.73537548828125 -19.553583984375003Q181.15350244140626 -21.152304687500003 181.15350244140626 -21.767197265625V-25.210595703125Q181.15350244140626 -25.456552734375002 181.36256591796877 -25.456552734375002Q180.94443896484376 -26.440380859375 180.94443896484376 -27.178251953125002Q181.57162939453127 -29.084418945312503 181.78069287109378 -40.705888671875L181.57162939453127 -42.181630859375005Q181.78069287109378 -42.6120556640625 181.78069287109378 -43.165458984375Q181.048970703125 -46.301411132812504 180.73537548828125 -46.608857421875H178.85380419921876Q176.8154353027344 -46.116943359375 176.55410595703125 -46.116943359375H176.13597900390627Q175.92691552734377 -46.116943359375 175.92691552734377 -46.362900390625L175.50878857421876 -46.116943359375H174.04534423828125Q173.36588793945313 -46.116943359375 172.58189990234376 -45.379072265625005H171.95470947265625Q171.3797849121094 -45.379072265625005 170.70032861328127 -45.870986328125Q168.60969384765627 -45.870986328125 168.60969384765627 -41.197802734375L169.02782080078126 -40.951845703125Q169.44594775390627 -41.197802734375 169.65501123046874 -41.197802734375Q170.49126513671877 -40.8288671875 170.49126513671877 -40.459931640625V-39.230146484375005Q170.49126513671877 -38.861210937500005 169.86407470703125 -38.492275390625004H168.40063037109377V-38.246318359375Q168.40063037109377 -38.000361328125 168.60969384765627 -37.508447265625L168.40063037109377 -36.032705078125005V-35.786748046875005Q168.40063037109377 -34.618452148437505 169.44594775390627 -32.097392578125L169.02782080078126 -31.851435546875003H168.81875732421875L168.19156689453126 -32.343349609375004Q166.51905908203125 -29.391865234375 164.42842431640625 -29.391865234375L164.01029736328127 -29.637822265625L162.75591650390626 -29.391865234375H162.33778955078125Q160.82207934570314 -29.883779296875 157.94745654296875 -30.129736328125002Q156.84987329101563 -29.883779296875 155.85682177734375 -29.883779296875H155.22963134765627Q150.36890551757813 -30.74462890625 147.07615576171875 -31.851435546875003L145.61271142578127 -33.819091796875V-34.556962890625Q145.61271142578127 -34.9258984375 146.44896533203126 -35.540791015625004H146.65802880859377Q147.96467553710937 -33.327177734375 148.53960009765626 -33.327177734375L148.74866357421877 -33.819091796875V-36.770576171875Q148.74866357421877 -38.246318359375 147.28521923828126 -38.246318359375V-39.722060546875Q148.95772705078124 -40.951845703125 148.95772705078124 -42.673544921875V-44.641201171875004Q148.95772705078124 -45.133115234375005 148.53960009765626 -45.133115234375005Q147.33748510742188 -43.903330078125 146.44896533203126 -43.903330078125Q146.03083837890625 -44.51822265625 146.03083837890625 -44.887158203125004Q147.65108032226564 -48.084599609375005 149.58491748046876 -48.084599609375005Q149.58491748046876 -49.621831054687505 152.72086962890626 -50.052255859375V-50.298212890625Q152.72086962890626 -50.4826806640625 151.25742529296875 -52.019912109375V-53.003740234375Q151.46648876953125 -53.741611328125 152.51180615234375 -53.741611328125H153.76618701171876Q154.2365798339844 -53.741611328125 154.39337744140624 -50.298212890625Q154.18431396484377 -50.298212890625 154.18431396484377 -50.052255859375L155.22963134765627 -49.806298828125H155.64775830078125Q157.94745654296875 -49.806298828125 157.94745654296875 -50.544169921875V-53.249697265625Q157.99972241210938 -53.741611328125 158.36558349609376 -53.741611328125H158.99277392578125Q160.24715478515625 -52.757783203125 160.24715478515625 -51.282041015625005L159.61996435546877 -50.052255859375V-49.806298828125H162.33778955078125Q164.01029736328127 -49.806298828125 164.01029736328127 -53.003740234375L163.80123388671876 -55.217353515625H162.33778955078125Q161.81513085937502 -55.217353515625 161.50153564453126 -57.185009765625004V-57.676923828125005Q161.50153564453126 -58.045859375000006 162.12872607421875 -58.414794921875H162.96497998046877Q163.17404345703125 -58.414794921875 163.17404345703125 -58.16883789062501Q164.42842431640625 -58.16883789062501 164.42842431640625 -62.596064453125H162.12872607421875Q161.71059912109376 -62.596064453125 161.71059912109376 -63.087978515625004V-63.825849609375005Q161.71059912109376 -64.19478515625 162.33778955078125 -64.563720703125Q163.17404345703125 -64.563720703125 165.05561474609377 -64.071806640625Q165.05561474609377 -64.9941455078125 169.65501123046874 -66.039462890625Q169.65501123046874 -65.547548828125 175.92691552734377 -65.301591796875Q176.97223291015627 -66.039462890625 177.59942333984375 -66.039462890625H177.80848681640626Q178.64474072265625 -65.547548828125 178.64474072265625 -65.301591796875Q179.48099462890627 -65.301591796875 180.31724853515627 -68.74499023437501Q180.31724853515627 -68.99094726562501 180.10818505859376 -70.712646484375Q180.52631201171874 -72.31136718750001 180.52631201171874 -72.926259765625V-75.38583007812501Q180.52631201171874 -80.05901367187501 183.45320068359376 -80.05901367187501Q183.45320068359376 -80.42794921875 185.54383544921876 -80.55092773437501ZM179.69005810546875 -75.38583007812501 179.89912158203126 -74.89391601562501Q179.58552636718753 -73.664130859375 178.43567724609375 -73.664130859375Q178.01755029296876 -73.664130859375 178.01755029296876 -74.15604492187501Q178.540208984375 -75.38583007812501 179.69005810546875 -75.38583007812501ZM203.73235791015625 -70.466689453125Q204.15048486328126 -70.4052001953125 204.15048486328126 -69.974775390625V-69.482861328125Q204.15048486328126 -68.99094726562501 203.73235791015625 -68.99094726562501Q203.31423095703127 -68.99094726562501 203.31423095703127 -69.482861328125V-69.974775390625Q203.3664968261719 -70.466689453125 203.73235791015625 -70.466689453125ZM167.77343994140625 -70.220732421875Q168.19156689453126 -70.1592431640625 168.19156689453126 -69.728818359375H167.77343994140625ZM157.11120263671876 -57.676923828125005H157.32026611328126V-56.939052734375004H156.69307568359375V-57.185009765625004Q156.74534155273437 -57.676923828125005 157.11120263671876 -57.676923828125005ZM177.59942333984375 -40.705888671875H177.80848681640626Q178.64474072265625 -40.398442382812505 178.64474072265625 -38.492275390625004Q178.64474072265625 -38.000361328125 178.22661376953127 -38.000361328125Q176.76316943359376 -38.369296875 176.76316943359376 -38.984189453125005Q176.76316943359376 -40.336953125 177.59942333984375 -40.705888671875ZM158.36558349609376 -28.899951171875003Q158.67917871093752 -28.899951171875003 159.20183740234376 -27.916123046875Q159.20183740234376 -27.424208984375003 158.78371044921874 -27.424208984375003H158.57464697265627Q158.10425415039063 -27.424208984375003 157.94745654296875 -28.653994140625002ZM153.55712353515625 -28.653994140625002Q153.97525048828126 -28.592504882812502 153.97525048828126 -28.162080078125V-27.916123046875Q153.97525048828126 -26.6248486328125 153.34806005859375 -26.440380859375Q152.25047680664062 -26.440380859375 151.88461572265626 -27.424208984375003V-27.916123046875Q152.04141333007814 -28.653994140625002 153.55712353515625 -28.653994140625002ZM148.74866357421877 -22.505068359375002H148.95772705078124Q149.37585400390626 -22.443579101562502 149.37585400390626 -22.013154296875V-21.275283203125Q149.37585400390626 -20.906347656250002 148.74866357421877 -20.537412109375H147.91240966796875Q147.49428271484376 -20.537412109375 147.49428271484376 -21.029326171875002Q147.49428271484376 -21.39826171875 148.74866357421877 -22.505068359375002ZM152.30274267578125 -17.094013671875H152.51180615234375V-16.602099609375H152.30274267578125ZM177.39035986328128 -15.372314453125H178.01755029296876Q178.3311455078125 -15.372314453125 178.85380419921876 -14.388486328125001Q178.85380419921876 -13.896572265625 178.43567724609375 -13.896572265625Q176.91996704101564 -13.896572265625 176.76316943359376 -14.634443359375Q176.76316943359376 -15.003378906250001 177.39035986328128 -15.372314453125ZM158.78371044921874 -10.945087890625Q159.20183740234376 -10.8835986328125 159.20183740234376 -10.453173828125001Q159.20183740234376 -10.08423828125 158.57464697265627 -9.715302734375001L158.36558349609376 -10.207216796875V-10.453173828125001Q158.4178493652344 -10.945087890625 158.78371044921874 -10.945087890625ZM152.72086962890626 -10.699130859375H153.13899658203127Q153.452591796875 -10.699130859375 153.76618701171876 -9.961259765625V-9.469345703125Q153.76618701171876 -9.10041015625 153.13899658203127 -8.731474609375H152.92993310546876Q152.616337890625 -8.731474609375 152.09367919921877 -9.715302734375001V-9.961259765625Q152.09367919921877 -10.3301953125 152.72086962890626 -10.699130859375ZM178.22661376953127 -5.534033203125Q179.48099462890627 -5.4110546875 179.48099462890627 -4.796162109375V-4.550205078125Q179.48099462890627 -4.0582910156250005 178.85380419921876 -4.0582910156250005Q177.59942333984375 -4.304248046875 177.59942333984375 -4.796162109375Q177.59942333984375 -5.16509765625 178.22661376953127 -5.534033203125ZM169.23688427734376 -4.0582910156250005 169.44594775390627 -3.5663769531250002 168.60969384765627 -2.8285058593750003H168.40063037109377Q168.97555493164063 -4.0582910156250005 169.23688427734376 -4.0582910156250005ZM193.48824755859377 0.860849609375 193.69731103515625 1.352763671875Q193.69731103515625 3.1359521484375 193.07012060546876 3.320419921875H192.86105712890625Q192.54746191406252 3.320419921875 192.23386669921877 2.582548828125V1.844677734375Q192.65199365234378 0.860849609375 193.48824755859377 0.860849609375ZM198.50577099609376 1.1068066406250001Q198.81936621093752 1.1068066406250001 199.13296142578128 1.844677734375V2.336591796875Q199.13296142578128 2.70552734375 198.50577099609376 3.074462890625Q197.87858056640627 2.8285058593750003 197.87858056640627 1.5987207031250001ZM156.69307568359375 3.5663769531250002H157.11120263671876V3.8123339843750004H156.69307568359375ZM173.41815380859376 7.009775390625H174.04534423828125Q174.46347119140626 7.0712646484375 174.46347119140626 7.5016894531250005V8.239560546875001Q174.46347119140626 8.60849609375 173.83628076171877 8.977431640625001H173.41815380859376Q173.10455859375 8.977431640625001 172.79096337890627 8.239560546875001Q173.05229272460937 7.009775390625 173.41815380859376 7.009775390625ZM188.67978759765626 7.747646484375Q189.09791455078127 7.8091357421875 189.09791455078127 8.239560546875001Q189.09791455078127 8.731474609375 188.67978759765626 8.731474609375Q188.26166064453128 8.731474609375 188.26166064453128 8.239560546875001Q188.3139265136719 7.747646484375 188.67978759765626 7.747646484375Z"/>
</svg>
